<svg width="150" height="150" viewBox="0 0 150 150" fill="none" xmlns="http://www.w3.org/2000/svg">
<g opacity="0.6">
<path d="M65.8013 15.7286C66.0149 15.5193 66.1217 15.4147 66.2143 15.3276C71.1496 10.6803 78.8504 10.6803 83.7858 15.3276C83.8783 15.4147 83.9851 15.5193 84.1987 15.7286C84.3268 15.8542 84.3909 15.917 84.4518 15.9751C87.6099 18.989 92.085 20.1881 96.3269 19.157C96.4087 19.1371 96.4956 19.1148 96.6694 19.0701C96.959 18.9957 97.1038 18.9585 97.2275 18.9293C103.825 17.3723 110.494 21.2227 112.445 27.715C112.481 27.8368 112.522 27.9808 112.602 28.2688C112.65 28.4416 112.674 28.5281 112.698 28.6089C113.926 32.798 117.202 36.074 121.391 37.302C121.472 37.3257 121.558 37.3498 121.731 37.398C122.019 37.4784 122.163 37.5185 122.285 37.5551C128.777 39.5056 132.628 46.1747 131.071 52.7725C131.042 52.8962 131.004 53.041 130.93 53.3306C130.885 53.5044 130.863 53.5913 130.843 53.6731C129.812 57.915 131.011 62.3901 134.025 65.5482C134.083 65.6091 134.146 65.6732 134.271 65.8013C134.481 66.0149 134.585 66.1217 134.672 66.2143C139.32 71.1496 139.32 78.8504 134.672 83.7858C134.585 83.8783 134.481 83.9851 134.271 84.1987C134.146 84.3268 134.083 84.3909 134.025 84.4518C131.011 87.6099 129.812 92.085 130.843 96.3269C130.863 96.4087 130.885 96.4956 130.93 96.6694C131.004 96.959 131.042 97.1038 131.071 97.2275C132.628 103.825 128.777 110.494 122.285 112.445C122.163 112.481 122.019 112.522 121.731 112.602C121.558 112.65 121.472 112.674 121.391 112.698C117.202 113.926 113.926 117.202 112.698 121.391C112.674 121.472 112.65 121.558 112.602 121.731C112.522 122.019 112.481 122.163 112.445 122.285C110.494 128.777 103.825 132.628 97.2275 131.071C97.1038 131.042 96.959 131.004 96.6694 130.93C96.4956 130.885 96.4087 130.863 96.3269 130.843C92.085 129.812 87.6099 131.011 84.4518 134.025C84.3909 134.083 84.3268 134.146 84.1987 134.271C83.9851 134.481 83.8783 134.585 83.7858 134.672C78.8504 139.32 71.1496 139.32 66.2143 134.672C66.1217 134.585 66.0149 134.481 65.8013 134.271C65.6732 134.146 65.6091 134.083 65.5482 134.025C62.3901 131.011 57.915 129.812 53.6731 130.843C53.5913 130.863 53.5044 130.885 53.3306 130.93C53.041 131.004 52.8962 131.042 52.7725 131.071C46.1747 132.628 39.5056 128.777 37.5551 122.285C37.5185 122.163 37.4784 122.019 37.398 121.731C37.3498 121.558 37.3257 121.472 37.302 121.391C36.074 117.202 32.798 113.926 28.6089 112.698C28.5281 112.674 28.4416 112.65 28.2688 112.602C27.9808 112.522 27.8368 112.481 27.715 112.445C21.2227 110.494 17.3723 103.825 18.9293 97.2275C18.9585 97.1038 18.9957 96.959 19.0701 96.6694C19.1148 96.4956 19.1371 96.4087 19.157 96.3269C20.1881 92.085 18.989 87.6099 15.9751 84.4518C15.917 84.3909 15.8542 84.3268 15.7286 84.1987C15.5193 83.9851 15.4147 83.8783 15.3276 83.7858C10.6803 78.8504 10.6803 71.1496 15.3276 66.2143C15.4147 66.1217 15.5193 66.0149 15.7286 65.8013C15.8542 65.6732 15.917 65.6091 15.9751 65.5482C18.989 62.3901 20.1881 57.915 19.157 53.6731C19.1371 53.5913 19.1148 53.5044 19.0701 53.3306C18.9957 53.041 18.9585 52.8962 18.9293 52.7725C17.3723 46.1747 21.2227 39.5056 27.715 37.5551C27.8368 37.5185 27.9808 37.4784 28.2688 37.398C28.4416 37.3498 28.5281 37.3257 28.6089 37.302C32.798 36.074 36.074 32.798 37.302 28.6089C37.3257 28.5281 37.3498 28.4416 37.398 28.2688C37.4784 27.9808 37.5185 27.8368 37.5551 27.715C39.5056 21.2227 46.1747 17.3723 52.7725 18.9293C52.8962 18.9585 53.041 18.9957 53.3306 19.0701C53.5044 19.1148 53.5913 19.1371 53.6731 19.157C57.915 20.1881 62.3901 18.989 65.5482 15.9751C65.6091 15.917 65.6732 15.8542 65.8013 15.7286Z" fill="#E1B964"/>
</g>
</svg>
