<svg width="258" height="258" viewBox="0 0 258 258" fill="none" xmlns="http://www.w3.org/2000/svg">
<g opacity="0.6">
<path d="M156.422 34.2685C199.006 15.7738 242.226 58.9943 223.731 101.578L220.674 108.619C215.027 121.62 215.027 136.38 220.674 149.381L223.731 156.422C242.226 199.006 199.006 242.226 156.422 223.731L149.381 220.674C136.38 215.027 121.62 215.027 108.619 220.674L101.578 223.731C58.9943 242.226 15.7738 199.006 34.2685 156.422L37.3264 149.381C42.9729 136.38 42.9729 121.62 37.3264 108.619L34.2685 101.578C15.7738 58.9943 58.9943 15.7738 101.578 34.2685L108.619 37.3264C121.62 42.9729 136.38 42.9729 149.381 37.3264L156.422 34.2685Z" fill="#E1B964"/>
</g>
</svg>
