<svg width="218" height="218" viewBox="0 0 218 218" fill="none" xmlns="http://www.w3.org/2000/svg">
<g opacity="0.8">
<path fill-rule="evenodd" clip-rule="evenodd" d="M173.898 44.0948C167.086 37.2826 151.564 40.6511 132.835 51.4487C127.226 30.569 118.632 17.2105 108.998 17.2105C99.3641 17.2105 90.7701 30.5682 85.1617 51.4468C66.4335 40.6502 50.9123 37.2822 44.1004 44.0942C37.2878 50.9068 40.6571 66.4305 51.4563 85.1612C30.5723 90.7695 17.2105 99.3646 17.2105 109C17.2105 118.634 30.5676 127.228 51.4453 132.836C40.6452 151.567 37.2755 167.092 44.0884 173.905C50.9015 180.718 66.4271 177.347 85.1598 166.546C90.7681 187.429 99.363 200.789 108.998 200.789C118.633 200.789 127.228 187.428 132.837 166.544C151.57 177.347 167.097 180.718 173.91 173.904C180.723 167.091 177.354 151.567 166.554 132.836C187.432 127.228 200.79 118.634 200.79 109C200.79 99.3646 187.427 90.7693 166.543 85.161C177.342 66.4307 180.711 50.9073 173.898 44.0948Z" fill="#E1B964"/>
</g>
</svg>
