<svg width="200" height="200" viewBox="0 0 200 200" fill="none" xmlns="http://www.w3.org/2000/svg">
<path d="M184.21 106.316C184.21 129.851 184.21 141.619 180.514 150.954C175.165 164.466 164.466 175.165 150.954 180.515C141.619 184.21 129.851 184.21 106.316 184.21H93.6842C70.1487 184.21 58.381 184.21 49.046 180.514C35.5339 175.165 24.8352 164.466 19.4854 150.954C15.7894 141.619 15.7894 129.851 15.7894 106.316L15.7894 93.6842C15.7894 70.1487 15.7894 58.381 19.4854 49.0461C24.8352 35.534 35.5339 24.8352 49.046 19.4854C58.381 15.7895 70.1487 15.7895 93.6842 15.7895L106.316 15.7895C129.851 15.7895 141.619 15.7895 150.954 19.4854C164.466 24.8353 175.165 35.534 180.514 49.0461C184.21 58.381 184.21 70.1488 184.21 93.6842V106.316Z" fill="#FFD57D"/>
</svg>
