<svg width="354" height="354" viewBox="0 0 354 354" fill="none" xmlns="http://www.w3.org/2000/svg">
<g clip-path="url(#clip0_11_28)">
<path d="M256.791 107.927C277.594 128.729 287.995 139.131 292.979 150.649C300.194 167.32 300.194 186.233 292.979 202.905C287.995 214.423 277.594 224.824 256.791 245.627L245.627 256.791C224.824 277.594 214.423 287.995 202.905 292.979C186.233 300.194 167.32 300.194 150.649 292.979C139.131 287.995 128.729 277.594 107.927 256.791L96.762 245.627C75.9594 224.824 65.5581 214.423 60.5739 202.905C53.3594 186.233 53.3594 167.32 60.5739 150.649C65.5581 139.131 75.9594 128.729 96.762 107.927L107.927 96.762C128.729 75.9594 139.131 65.5581 150.649 60.5739C167.32 53.3594 186.233 53.3594 202.905 60.5739C214.423 65.5581 224.824 75.9594 245.627 96.762L256.791 107.927Z" fill="#FFD57D"/>
</g>
<defs>
<clipPath id="clip0_11_28">
<rect width="250" height="250" fill="white" transform="translate(0 176.777) rotate(-45)"/>
</clipPath>
</defs>
</svg>
